# xmcd
#
# Track frame offsets: 
#        150
#        12769
#        23600
#        34470
#        47317
#        60253
#        70412
#        79630
#        95520
#        108052
#        121219
#        137890
#
# Disc length: 2024 seconds
#
# Revision: 0
# Processed by: cddbd v1.5.2PL0 Copyright (c) Steve Scherf et al.
# Submitted via: ExactAudioCopyFreeDBPlugin 1.0
#
DISCID=8c07e60c
DTITLE=Loretta Lynn - White Christmas Blue
DYEAR=2016
DGENRE=Holiday
TTITLE0=White Christmas Blue
TTITLE1=Country Christmas
TTITLE2=Winter Wonderland
TTITLE3=Away In A Manger
TTITLE4=Blue Christmas
TTITLE5=To Heck With Ole Santa Claus
TTITLE6=Frosty The Snowman
TTITLE7=Oh Come, All Ye Faithful
TTITLE8=Jingle Bells
TTITLE9=White Christmas
TTITLE10=Silent Night
TTITLE11='Twas The Night Before Christmas
EXTD=
EXTT0=
EXTT1=
EXTT2=
EXTT3=
EXTT4=
EXTT5=
EXTT6=
EXTT7=
EXTT8=
EXTT9=
EXTT10=
EXTT11=
PLAYORDER=
